<!DOCTYPE svg PUBLIC "-//W3C//DTD SVG 1.1//EN" "http://www.w3.org/Graphics/SVG/1.1/DTD/svg11.dtd">

<!-- Uploaded to: SVG Repo, www.svgrepo.com, Transformed by: SVG Repo Mixer Tools -->
<svg fill="#ffffff" height="100" width="100" version="1.1" id="Capa_1" xmlns="http://www.w3.org/2000/svg" xmlns:xlink="http://www.w3.org/1999/xlink" viewBox="0 0 488.386 488.386" xml:space="preserve" stroke="#ffffff">

<g id="SVGRepo_bgCarrier" stroke-width="0"/>

<g id="SVGRepo_tracerCarrier" stroke-linecap="round" stroke-linejoin="round"/>

<g id="SVGRepo_iconCarrier"> <g> <path d="M440.693,141.586c-96-15.9-151.1,18-181.7,62.6v-0.3c16-75-24.5-232.4-211.3-199.4c-5.2,0-18.7,8.6-18.7,21.8 c0,79.3,25.7,196.7,188.5,187.4v253.9c0,11.4,9.3,20.8,20.8,20.8c10.4,0,19.7-9.3,20.8-20.8v-117.7 c173.4,15.8,200.3-105.3,200.3-186.5C459.393,158.186,456.393,143.486,440.693,141.586z M70.493,42.886 c113.8-19.1,151.9,74.1,150.6,128.7C135.893,186.486,70.493,130.986,70.493,42.886z M267.393,308.686 c-1.4-54.6,36.8-147.8,150.5-128.7C417.893,268.086,352.493,323.686,267.393,308.686z"/> </g> </g>

</svg>